<?xml version="1.0" standalone="no"?>
<!DOCTYPE svg PUBLIC "-//W3C//DTD SVG 20010904//EN"
 "http://www.w3.org/TR/2001/REC-SVG-20010904/DTD/svg10.dtd">
<svg version="1.0" xmlns="http://www.w3.org/2000/svg"
 width="300.000000pt" height="271.000000pt" viewBox="0 0 300.000000 271.000000"
 preserveAspectRatio="xMidYMid meet">
<metadata>
Created by potrace 1.10, written by Peter Selinger 2001-2011
</metadata>
<g transform="translate(0.000000,271.000000) scale(0.100000,-0.100000)"
fill="#000000" stroke="none">
<path d="M592 2570 c-2 -80 -3 -281 -2 -447 l0 -303 -291 0 c-161 0 -294 -2
-297 -5 -5 -5 154 -7 440 -5 l148 1 0 -296 0 -295 -298 -1 c-163 0 -292 -3
-287 -5 6 -2 139 -5 295 -7 l285 -2 6 -95 5 -95 2 100 c2 55 2 234 2 397 l0
297 117 4 118 3 -117 2 -118 2 0 295 0 295 282 0 c154 0 283 2 286 5 5 5 -140
7 -420 5 l-147 -1 -4 148 -3 148 -2 -145z"/>
<path d="M894 2580 c0 -74 1 -105 3 -67 2 37 2 97 0 135 -2 37 -3 6 -3 -68z"/>
<path d="M1190 2561 c-3 -84 -2 -157 1 -163 12 -19 14 18 9 167 l-6 150 -4
-154z"/>
<path d="M1492 2578 c2 -134 5 -118 10 45 2 48 0 87 -4 87 -5 0 -7 -60 -6
-132z"/>
<path d="M1792 2578 c2 -134 5 -118 10 45 2 48 0 87 -4 87 -5 0 -7 -60 -6
-132z"/>
<path d="M2391 2588 c-1 -68 3 -130 9 -138 7 -10 10 28 10 123 0 75 -4 137 -9
137 -5 0 -9 -55 -10 -122z"/>
<path d="M2704 2565 c0 -66 1 -92 3 -57 2 34 2 88 0 120 -2 31 -3 3 -3 -63z"/>
<path d="M294 2545 c0 -49 1 -71 3 -48 2 23 2 64 0 90 -2 26 -3 8 -3 -42z"/>
<path d="M140 2420 l-145 -5 150 -5 c83 -3 213 -3 290 0 l140 6 -132 2 c-72 1
-137 3 -145 5 -7 1 -78 0 -158 -3z"/>
<path d="M1521 2408 c-5 -13 -23 -57 -40 -98 -17 -41 -31 -76 -31 -77 0 -2 7
-3 16 -3 9 0 18 9 21 19 4 14 16 20 50 23 49 4 57 1 66 -24 7 -21 27 -24 27
-6 0 27 -75 188 -87 188 -8 0 -17 -10 -22 -22z m58 -100 c1 -5 -15 -8 -35 -8
-38 0 -38 1 -12 70 10 25 10 25 28 -15 10 -22 19 -43 19 -47z"/>
<path d="M1960 2420 c-94 -4 -50 -6 145 -6 275 -1 316 3 100 8 -60 2 -171 1
-245 -2z"/>
<path d="M2391 2421 c4 -10 39 -13 144 -12 77 1 141 4 144 7 2 2 -55 4 -127 4
-71 0 -138 3 -148 7 -11 4 -15 2 -13 -6z"/>
<path d="M2690 2418 c0 -5 70 -8 155 -8 85 0 155 3 155 8 0 4 -70 7 -155 7
-85 0 -155 -3 -155 -7z"/>
<path d="M1367 2413 c18 -2 50 -2 70 0 21 2 7 4 -32 4 -38 0 -55 -2 -38 -4z"/>
<path d="M1633 2413 c20 -2 54 -2 75 0 20 2 3 4 -38 4 -41 0 -58 -2 -37 -4z"/>
<path d="M1288 2404 c-3 -3 -2 -20 3 -37 14 -50 12 -54 -35 -66 -25 -6 -47
-11 -49 -11 -3 0 -8 16 -11 35 -7 33 -22 53 -33 42 -9 -10 43 -191 57 -195 12
-4 12 24 -2 77 -3 13 78 45 93 35 5 -3 11 -20 15 -39 4 -22 12 -35 21 -35 11
0 14 6 9 23 -3 12 -14 51 -22 87 -16 63 -34 97 -46 84z"/>
<path d="M1751 2314 c-13 -52 -21 -98 -18 -101 11 -10 24 7 30 37 9 43 32 37
63 -17 35 -61 32 -59 45 -46 8 8 2 24 -21 59 -33 47 -33 47 -13 63 12 9 35 24
52 33 30 17 42 38 21 38 -6 0 -36 -16 -67 -36 -30 -19 -58 -33 -61 -29 -3 3 0
20 6 38 15 43 15 57 -1 57 -8 0 -22 -35 -36 -96z"/>
<path d="M893 2335 c0 -33 2 -45 4 -27 2 18 2 45 0 60 -2 15 -4 0 -4 -33z"/>
<path d="M2397 2383 c-11 -10 -8 -216 3 -233 7 -10 10 26 10 113 0 70 -1 127
-3 127 -2 0 -7 -3 -10 -7z"/>
<path d="M294 2265 c0 -66 1 -92 3 -57 2 34 2 88 0 120 -2 31 -3 3 -3 -63z"/>
<path d="M2704 2265 c0 -66 1 -92 3 -57 2 34 2 88 0 120 -2 31 -3 3 -3 -63z"/>
<path d="M2021 2274 c-38 -32 -49 -80 -27 -122 20 -39 44 -52 93 -52 99 0 134
129 49 181 -42 26 -79 24 -115 -7z m122 -36 c36 -48 3 -112 -58 -112 -68 0
-99 72 -53 121 31 33 83 28 111 -9z"/>
<path d="M933 2257 c-24 -11 -43 -24 -43 -28 0 -7 75 -135 92 -156 12 -16 105
34 114 60 10 32 -5 66 -31 73 -14 3 -25 10 -25 16 0 11 -46 58 -57 57 -4 0
-27 -10 -50 -22z m75 -33 c2 -14 -6 -27 -24 -39 -26 -17 -28 -17 -41 1 -17 24
-16 34 5 50 24 20 56 13 60 -12z m61 -52 c12 -22 5 -33 -37 -58 -33 -19 -34
-19 -48 0 -20 27 -18 31 19 55 40 26 54 26 66 3z"/>
<path d="M62 2113 c37 -2 100 -2 140 0 40 1 10 3 -67 3 -77 0 -110 -1 -73 -3z"/>
<path d="M378 2113 c34 -2 90 -2 125 0 34 2 6 3 -63 3 -69 0 -97 -1 -62 -3z"/>
<path d="M683 2113 c37 -2 96 -2 130 0 34 2 4 3 -68 3 -71 0 -99 -1 -62 -3z"/>
<path d="M1410 2113 c-286 -50 -542 -246 -660 -506 -67 -150 -96 -347 -71
-492 l12 -70 -38 -30 c-88 -70 -123 -122 -123 -185 0 -27 8 -58 20 -77 23 -38
95 -93 121 -93 13 0 21 -12 29 -40 34 -128 223 -188 299 -96 12 14 18 12 55
-13 145 -100 313 -152 492 -152 151 -1 276 27 397 88 44 22 50 23 88 10 57
-19 83 -11 142 43 49 45 51 49 38 73 -13 24 -11 27 23 57 36 32 48 70 22 70
-8 0 -28 -16 -45 -35 -34 -39 -43 -42 -61 -20 -11 13 -7 22 23 53 64 65 40 89
-25 25 -33 -32 -40 -35 -62 -25 -22 10 -29 6 -76 -44 -51 -54 -52 -56 -48
-106 l5 -50 -65 -30 c-116 -53 -203 -70 -347 -71 -155 -1 -239 18 -380 88
-141 71 -138 67 -123 152 9 56 9 99 0 194 l-11 123 29 62 c24 50 34 61 49 57
29 -7 59 13 80 56 l20 38 338 -129 c470 -179 446 -171 550 -166 105 6 166 31
227 92 78 78 113 191 101 331 -34 410 -304 722 -702 809 -67 15 -259 20 -323
9z m334 -50 c195 -43 369 -158 491 -324 60 -82 96 -152 130 -259 24 -73 28
-103 29 -215 1 -116 -1 -135 -22 -180 -47 -103 -140 -168 -258 -181 l-59 -7
37 37 c68 66 188 296 188 358 -1 162 -340 437 -690 559 -87 30 -105 33 -220
33 -122 1 -127 0 -194 -33 -81 -40 -180 -133 -249 -237 -49 -73 -57 -110 -36
-157 8 -18 7 -32 -5 -62 -20 -48 -20 -94 0 -116 14 -16 13 -22 -14 -76 -24
-46 -42 -67 -87 -97 -31 -20 -60 -35 -63 -31 -3 3 -8 59 -10 124 -3 86 0 141
13 202 95 473 549 768 1019 662z m-167 -248 c294 -98 622 -344 663 -496 10
-35 7 -46 -23 -112 -84 -182 -162 -287 -214 -287 -16 0 -185 59 -374 130 -189
72 -374 142 -410 156 -60 22 -79 37 -183 144 -129 132 -136 149 -94 219 42 70
127 169 180 207 127 94 258 105 455 39z m-584 -512 c-18 -28 -43 -29 -74 -4
-20 16 -21 22 -12 47 6 16 14 37 17 46 4 15 12 11 45 -24 37 -40 38 -43 24
-65z m54 -100 l-22 -62 20 -27 20 -26 -27 -58 c-22 -45 -39 -65 -83 -93 -30
-21 -57 -37 -60 -37 -3 0 -5 24 -6 53 0 28 -4 79 -8 112 -7 54 -5 66 22 122
26 57 31 62 53 57 19 -5 30 1 52 24 25 29 28 29 44 14 16 -16 16 -21 -5 -79z
m69 16 c3 -6 21 -17 40 -25 l33 -14 -20 -35 c-22 -36 -45 -43 -80 -25 -22 12
-24 30 -7 77 13 34 22 41 34 22z m-270 -141 c4 -6 1 -16 -7 -22 -14 -10 -40
-82 -55 -151 -12 -55 -73 -172 -99 -189 -32 -21 -45 -13 -45 28 0 50 24 99
107 219 41 59 71 107 68 107 -3 0 -3 5 0 10 8 13 22 13 31 -2z m-132 -100
c-63 -81 -104 -159 -104 -200 0 -39 -18 -35 -36 8 -20 47 -11 86 29 131 39 45
144 133 158 133 6 0 -16 -33 -47 -72z m146 -49 c0 -46 -4 -59 -25 -79 -33 -31
-40 -21 -22 32 8 23 18 63 22 87 10 58 25 35 25 -40z m150 -23 c0 -8 -4 -16
-8 -18 -5 -1 -21 -48 -37 -103 -33 -119 -66 -193 -102 -229 -82 -83 -75 50 10
176 23 35 60 87 81 116 21 28 35 52 31 52 -3 0 -3 5 0 10 9 15 25 12 25 -4z
m-130 -101 c-59 -77 -97 -149 -108 -202 l-8 -38 -17 32 c-21 39 -22 75 -3 111
21 40 172 179 183 169 2 -3 -19 -35 -47 -72z m121 -219 c-15 -36 -27 -47 -65
-61 -26 -10 -49 -15 -53 -12 -3 4 8 22 25 41 33 38 65 116 90 221 l17 70 3
-108 c2 -89 -1 -115 -17 -151z m1137 40 c18 -19 32 -45 32 -58 0 -52 -92 -104
-139 -79 -50 27 -50 85 -1 139 38 42 67 41 108 -2z"/>
<path d="M1493 1985 c0 -33 2 -45 4 -27 2 18 2 45 0 60 -2 15 -4 0 -4 -33z"/>
<path d="M1794 1925 c0 -49 1 -71 3 -48 2 23 2 64 0 90 -2 26 -3 8 -3 -42z"/>
<path d="M1790 1818 c0 -5 65 -8 144 -8 79 0 151 -3 160 -6 9 -3 16 -1 16 4 0
7 -56 12 -160 14 -88 2 -160 0 -160 -4z"/>
<path d="M1295 1786 c-74 -35 -165 -108 -165 -132 0 -21 8 -18 63 31 47 41 96
69 180 104 15 6 25 16 22 21 -10 15 -25 12 -100 -24z"/>
<path d="M1235 1610 c-28 -30 -25 -41 6 -17 13 10 33 47 26 47 -2 0 -16 -13
-32 -30z"/>
<path d="M1300 1627 c0 -16 46 -54 55 -45 3 2 -9 17 -25 33 -23 22 -30 25 -30
12z"/>
<path d="M1050 1556 c-29 -43 -39 -76 -21 -76 9 0 71 96 71 111 0 21 -21 6
-50 -35z"/>
<path d="M1577 1561 c-111 -23 -177 -84 -144 -134 9 -14 114 -71 290 -156 263
-127 277 -132 304 -119 56 27 90 145 58 204 -28 52 -198 154 -311 187 -68 20
-150 27 -197 18z m158 -46 c72 -19 162 -60 239 -109 l56 -36 -20 -40 c-11 -22
-25 -40 -30 -40 -5 0 -103 44 -217 99 -114 54 -217 101 -227 105 -24 8 -16 16
26 26 54 13 110 11 173 -5z m-90 -109 c318 -156 323 -158 353 -144 15 7 34 28
43 47 19 40 34 27 24 -22 -14 -62 -37 -107 -55 -107 -9 0 -55 19 -101 41 -46
23 -166 81 -266 130 -142 68 -183 92 -183 107 0 19 10 34 19 30 3 -2 78 -39
166 -82z"/>
<path d="M1231 1524 c15 -16 25 -21 28 -13 2 7 -4 18 -15 26 -30 22 -39 15
-13 -13z"/>
<path d="M1316 1531 c-30 -33 -12 -44 19 -11 20 21 24 30 13 30 -8 0 -23 -9
-32 -19z"/>
<path d="M2248 2113 c23 -2 61 -2 85 0 23 2 4 4 -43 4 -47 0 -66 -2 -42 -4z"/>
<path d="M2488 2113 c34 -2 90 -2 125 0 34 2 6 3 -63 3 -69 0 -97 -1 -62 -3z"/>
<path d="M2793 2113 c37 -2 96 -2 130 0 34 2 4 3 -68 3 -71 0 -99 -1 -62 -3z"/>
<path d="M2395 2081 c-9 -15 -4 -216 6 -232 5 -9 9 35 9 114 0 122 -2 138 -15
118z"/>
<path d="M294 1965 c0 -66 1 -92 3 -57 2 34 2 88 0 120 -2 31 -3 3 -3 -63z"/>
<path d="M894 1990 c0 -52 1 -74 3 -47 2 26 2 68 0 95 -2 26 -3 4 -3 -48z"/>
<path d="M2704 1965 c0 -66 1 -92 3 -57 2 34 2 88 0 120 -2 31 -3 3 -3 -63z"/>
<path d="M2390 1815 c0 -6 108 -10 305 -10 168 0 305 3 305 8 0 4 -64 7 -142
7 -79 0 -216 1 -306 3 -103 1 -162 -2 -162 -8z"/>
<path d="M2298 1813 c18 -2 45 -2 60 0 15 2 0 4 -33 4 -33 0 -45 -2 -27 -4z"/>
<path d="M2396 1774 c-8 -21 -6 -103 4 -134 5 -17 8 3 9 63 1 87 -2 101 -13
71z"/>
<path d="M2704 1665 c0 -66 1 -92 3 -57 2 34 2 88 0 120 -2 31 -3 3 -3 -63z"/>
<path d="M294 1650 c0 -58 1 -81 3 -52 2 28 2 76 0 105 -2 28 -3 5 -3 -53z"/>
<path d="M63 1513 c37 -2 97 -2 135 0 37 2 6 3 -68 3 -74 0 -105 -1 -67 -3z"/>
<path d="M378 1513 c34 -2 90 -2 125 0 34 2 6 3 -63 3 -69 0 -97 -1 -62 -3z"/>
<path d="M2503 1513 c31 -2 83 -2 115 0 31 2 5 3 -58 3 -63 0 -89 -1 -57 -3z"/>
<path d="M2793 1513 c37 -2 96 -2 130 0 34 2 4 3 -68 3 -71 0 -99 -1 -62 -3z"/>
<path d="M294 1365 c0 -66 1 -92 3 -57 2 34 2 88 0 120 -2 31 -3 3 -3 -63z"/>
<path d="M2704 1365 c0 -66 1 -92 3 -57 2 34 2 88 0 120 -2 31 -3 3 -3 -63z"/>
<path d="M2472 1215 c8 -8 528 -11 528 -2 0 4 -120 7 -267 7 -146 0 -264 -2
-261 -5z"/>
<path d="M294 1060 c0 -63 1 -89 3 -57 2 31 2 83 0 115 -2 31 -3 5 -3 -58z"/>
<path d="M2704 1060 c0 -63 1 -89 3 -57 2 31 2 83 0 115 -2 31 -3 5 -3 -58z"/>
<path d="M1188 839 c-2 -123 0 -249 3 -279 l6 -55 2 50 c4 95 1 498 -3 503 -3
2 -7 -96 -8 -219z"/>
<path d="M1489 926 c-2 -2 -2 -58 1 -123 l4 -118 6 115 c5 104 2 138 -11 126z"/>
<path d="M2397 923 c-10 -19 -8 -271 2 -278 8 -4 11 38 11 139 0 135 -2 158
-13 139z"/>
<path d="M1680 857 c-8 -17 -30 -39 -48 -49 -48 -24 -49 -26 -9 -43 25 -10 43
-28 58 -56 23 -45 24 -45 47 3 10 18 32 40 49 48 35 16 44 40 15 40 -23 0 -60
34 -72 66 -13 32 -22 30 -40 -9z m40 -91 c-19 -19 -21 -19 -37 -3 -16 15 -16
18 2 37 17 19 19 19 37 3 18 -16 18 -17 -2 -37z"/>
<path d="M294 760 c0 -63 1 -89 3 -57 2 31 2 83 0 115 -2 31 -3 5 -3 -58z"/>
<path d="M2704 760 c0 -63 1 -89 3 -57 2 31 2 83 0 115 -2 31 -3 5 -3 -58z"/>
<path d="M1370 845 c0 -8 -14 -24 -32 -35 l-32 -19 26 -10 c15 -5 29 -19 33
-30 3 -12 10 -21 15 -21 5 0 12 9 15 21 4 11 18 25 33 30 l26 10 -32 19 c-18
11 -32 27 -32 35 0 8 -4 15 -10 15 -5 0 -10 -7 -10 -15z"/>
<path d="M1497 639 c-9 -17 -26 -33 -37 -36 -11 -3 -20 -9 -20 -13 0 -4 9 -10
20 -13 11 -3 28 -19 37 -36 22 -38 29 -39 37 -6 4 14 18 31 31 37 30 14 32 25
5 33 -11 4 -27 20 -35 36 -9 16 -17 29 -18 29 -1 0 -10 -14 -20 -31z"/>
<path d="M0 611 c0 -12 241 -14 260 -1 10 7 -28 10 -122 10 -76 0 -138 -4
-138 -9z"/>
<path d="M325 610 c8 -13 215 -13 235 0 10 7 -27 10 -113 10 -83 0 -126 -4
-122 -10z"/>
<path d="M588 333 c1 -159 4 -292 6 -298 3 -5 5 51 5 125 1 74 2 208 4 298 1
103 -2 162 -8 162 -6 0 -9 -101 -7 -287z"/>
<path d="M1105 610 c8 -13 35 -13 55 0 11 7 5 10 -23 10 -23 0 -36 -4 -32 -10z"/>
<path d="M1225 610 c8 -13 165 -13 185 0 10 7 -18 10 -88 10 -66 0 -101 -4
-97 -10z"/>
<path d="M1623 614 c10 -10 137 -12 143 -2 3 4 -30 8 -72 8 -43 0 -74 -3 -71
-6z"/>
<path d="M1791 543 c1 -86 6 -81 12 15 2 34 0 62 -5 62 -4 0 -7 -35 -7 -77z"/>
<path d="M1830 610 c8 -5 26 -10 40 -10 14 0 32 5 40 10 11 7 -1 10 -40 10
-39 0 -51 -3 -40 -10z"/>
<path d="M2290 610 c8 -5 26 -10 40 -10 14 0 32 5 40 10 11 7 -1 10 -40 10
-39 0 -51 -3 -40 -10z"/>
<path d="M2435 610 c8 -13 215 -13 235 0 10 7 -27 10 -113 10 -83 0 -126 -4
-122 -10z"/>
<path d="M2735 610 c7 -12 265 -11 265 1 0 5 -61 9 -136 9 -85 0 -133 -4 -129
-10z"/>
<path d="M2391 467 c0 -62 5 -120 10 -128 5 -9 9 34 9 114 0 79 -4 127 -10
127 -6 0 -10 -43 -9 -113z"/>
<path d="M294 460 c0 -63 1 -89 3 -57 2 31 2 83 0 115 -2 31 -3 5 -3 -58z"/>
<path d="M2704 460 c0 -63 1 -89 3 -57 2 31 2 83 0 115 -2 31 -3 5 -3 -58z"/>
<path d="M1026 295 c-20 -63 -16 -71 32 -81 41 -8 43 12 2 21 -33 7 -33 7 -24
29 4 11 11 13 29 6 14 -5 27 -6 29 -1 8 12 -4 21 -26 21 -19 0 -25 24 -9 35 5
3 21 0 35 -6 27 -13 47 -6 30 10 -5 5 -25 12 -44 16 l-36 6 -18 -56z"/>
<path d="M2025 338 c-37 -104 -37 -120 6 -98 17 9 23 8 33 -6 12 -16 14 -15
18 9 3 15 2 27 -3 27 -5 0 -13 18 -19 40 -11 40 -26 52 -35 28z"/>
<path d="M112 303 c27 -2 69 -2 96 0 26 2 4 3 -48 3 -52 0 -74 -1 -48 -3z"/>
<path d="M393 303 c32 -2 81 -2 110 0 29 2 3 3 -58 3 -60 0 -84 -1 -52 -3z"/>
<path d="M693 303 c32 -2 81 -2 110 0 29 2 3 3 -58 3 -60 0 -84 -1 -52 -3z"/>
<path d="M1182 298 c-18 -18 -15 -35 13 -56 30 -24 32 -42 5 -42 -11 0 -20 5
-20 10 0 6 -7 10 -15 10 -23 0 -18 -18 10 -36 23 -15 27 -15 50 0 32 21 32 29
-7 65 -29 27 -30 31 -14 37 12 5 23 2 31 -9 13 -19 25 -22 25 -8 0 16 -30 41
-49 41 -9 0 -22 -5 -29 -12z"/>
<path d="M1856 294 c-16 -15 -22 -44 -10 -44 3 0 14 10 23 22 18 22 41 18 41
-7 0 -8 -14 -30 -31 -50 -18 -20 -30 -38 -27 -40 9 -9 98 7 98 17 0 6 -13 8
-29 6 -26 -4 -29 -2 -20 13 5 10 14 21 19 24 25 16 -3 75 -35 75 -7 0 -21 -7
-29 -16z"/>
<path d="M2203 303 c32 -2 81 -2 110 0 29 2 3 3 -58 3 -60 0 -84 -1 -52 -3z"/>
<path d="M2493 303 c31 -2 83 -2 115 0 31 2 5 3 -58 3 -63 0 -89 -1 -57 -3z"/>
<path d="M2798 303 c34 -2 88 -2 120 0 31 2 3 3 -63 3 -66 0 -92 -1 -57 -3z"/>
<path d="M1310 282 c0 -5 9 -12 20 -15 18 -5 20 -11 14 -61 -4 -36 -3 -56 3
-56 6 0 14 25 18 55 5 45 10 55 26 55 10 0 19 5 19 10 0 6 -12 10 -27 10 -16
0 -38 3 -50 6 -13 4 -23 2 -23 -4z"/>
<path d="M894 160 c0 -69 1 -97 3 -63 2 35 2 91 0 125 -2 35 -3 7 -3 -62z"/>
<path d="M1494 160 c0 -69 1 -97 3 -63 2 35 2 91 0 125 -2 35 -3 7 -3 -62z"/>
<path d="M1697 262 c-34 -37 -9 -112 37 -112 49 0 72 63 40 108 -18 27 -55 29
-77 4z m67 -35 c8 -21 6 -31 -6 -44 -21 -20 -46 -11 -54 22 -13 53 42 74 60
22z"/>
<path d="M294 160 c0 -63 1 -89 3 -57 2 31 2 83 0 115 -2 31 -3 5 -3 -58z"/>
<path d="M1546 254 c-9 -8 -13 -20 -10 -26 5 -7 11 -5 19 5 14 20 41 22 51 5
5 -7 -9 -26 -34 -48 -23 -21 -39 -40 -35 -44 10 -10 93 -7 93 4 0 6 -14 10
-30 10 l-30 0 32 29 c29 26 31 31 20 55 -13 30 -51 35 -76 10z"/>
<path d="M2391 173 c0 -54 4 -107 9 -118 5 -13 9 23 9 98 1 72 -3 117 -9 117
-6 0 -10 -39 -9 -97z"/>
<path d="M2704 160 c0 -63 1 -89 3 -57 2 31 2 83 0 115 -2 31 -3 5 -3 -58z"/>
<path d="M1191 78 c0 -43 2 -78 7 -78 4 0 6 24 4 52 -5 95 -9 104 -11 26z"/>
<path d="M1793 85 c0 -33 2 -45 4 -27 2 18 2 45 0 60 -2 15 -4 0 -4 -33z"/>
</g>
</svg>
