<svg id="sw-js-blob-svg" xmlns="http://www.w3.org/2000/svg" version="1.1" viewBox="23.05 26.57 58.2 63.98">
                    <defs> 
                        <linearGradient id="sw-gradient" x1="0" x2="1" y1="1" y2="0">
                            <stop id="stop1" stop-color="rgba(61.853, 54.812, 51.48, 1)" offset="0%"/>
                            <stop id="stop2" stop-color="rgba(77.79, 73.879, 67.424, 1)" offset="100%"/>
                        </linearGradient>
                    </defs>
                <path fill="none" d="M14,-15C19.3,-12.1,25.8,-8.9,27.9,-3.9C30,1.1,27.8,8,24.7,15.1C21.6,22.3,17.6,29.8,10.9,34.2C4.1,38.5,-5.4,39.7,-10.6,35.1C-15.8,30.6,-16.7,20.4,-19,12.7C-21.2,5.1,-24.9,0,-24.4,-4.6C-23.9,-9.2,-19.3,-13.3,-14.5,-16.4C-9.8,-19.4,-4.9,-21.2,-0.3,-20.9C4.3,-20.5,8.6,-17.9,14,-15Z" width="100%" height="100%" transform="translate(50 50)" style="transition: 0.3s;" stroke-width="1" stroke="url(#sw-gradient)"/>
              </svg>